<?xml version="1.0" encoding="UTF-8" standalone="no"?><!DOCTYPE svg PUBLIC "-//W3C//DTD SVG 1.1//EN" "http://www.w3.org/Graphics/SVG/1.1/DTD/svg11.dtd"><!-- Generated by graphviz version 2.40.1 (20161225.0304)
 --><!-- Title: G Pages: 1 --><svg xmlns="http://www.w3.org/2000/svg" xmlns:xlink="http://www.w3.org/1999/xlink" width="456pt" height="221pt" viewBox="0.00 0.00 455.98 220.80">
<g id="graph0" class="graph" transform="scale(1 1) rotate(0) translate(4 216.8)">
<title>G</title>
<polygon fill="#ffffff" stroke="transparent" points="-4,4 -4,-216.8 451.9804,-216.8 451.9804,4 -4,4"/>
<g id="clust1" class="cluster">
<title>cluster_0</title>
<polygon fill="#d3d3d3" stroke="#d3d3d3" points="252,-108 252,-212.8 447.9804,-212.8 447.9804,-108 252,-108"/>
<text text-anchor="middle" x="349.9902" y="-196.2" font-family="Times,serif" font-size="14.00" fill="#000000">Range Sensor</text>
</g>
<g id="clust2" class="cluster">
<title>cluster_1</title>
<polygon fill="#0000ff" stroke="#0000ff" points="0,-108 0,-212.8 248.1894,-212.8 248.1894,-108 0,-108"/>
<text text-anchor="middle" x="124.0947" y="-196.2" font-family="Times,serif" font-size="14.00" fill="#000000">7segment display</text>
</g>
<g id="clust3" class="cluster">
<title>cluster_3</title>
<polygon fill="#ff0000" stroke="#ff0000" points="281,0 281,-104.8 418.885,-104.8 418.885,0 281,0"/>
<text text-anchor="middle" x="349.9425" y="-88.2" font-family="Times,serif" font-size="14.00" fill="#000000">Servo_PWM</text>
</g>
<g id="clust4" class="cluster">
<title>cluster_4</title>
<polygon fill="#00ff00" stroke="#00ff00" points="34,0 34,-104.8 213.1922,-104.8 213.1922,0 34,0"/>
<text text-anchor="middle" x="123.5961" y="-88.2" font-family="Times,serif" font-size="14.00" fill="#000000">SDRAM</text>
</g>
<!-- trigger -->
<g id="node1" class="node">
<title>trigger</title>
<polygon fill="#ffffff" stroke="#ffffff" points="346,-146 292,-146 292,-110 346,-110 346,-146"/>
<text text-anchor="middle" x="319" y="-123.8" font-family="Times,serif" font-size="14.00" fill="#000000">trigger</text>
</g>
<!-- counter -->
<g id="node2" class="node">
<title>counter</title>
<polygon fill="#ffffff" stroke="#ffffff" points="445.9706,-186 388.0098,-186 388.0098,-150 445.9706,-150 445.9706,-186"/>
<text text-anchor="middle" x="416.9902" y="-163.8" font-family="Times,serif" font-size="14.00" fill="#000000">counter</text>
</g>
<!-- trigger&#45;&gt;counter -->
<g id="edge1" class="edge">
<title>trigger-&gt;counter</title>
<path fill="none" stroke="#000000" d="M346.0356,-139.0361C356.1131,-143.1497 367.7532,-147.9013 378.6536,-152.3509"/>
<polygon fill="#000000" stroke="#000000" points="377.4034,-155.6208 387.9845,-156.1598 380.049,-149.14 377.4034,-155.6208"/>
</g>
<!-- distance_calculation -->
<g id="node3" class="node">
<title>distance_calculation</title>
<polygon fill="#ffffff" stroke="#ffffff" points="384.4359,-186 253.8545,-186 253.8545,-150 384.4359,-150 384.4359,-186"/>
<text text-anchor="middle" x="319.1452" y="-163.8" font-family="Times,serif" font-size="14.00" fill="#000000">distance_calculation</text>
</g>
<!-- counter&#45;&gt;distance_calculation -->
<g id="edge2" class="edge">
<title>counter-&gt;distance_calculation</title>
<path fill="none" stroke="#000000" d="M387.8984,-168C387.7576,-168 387.6165,-168 387.4751,-168"/>
<polygon fill="#000000" stroke="#000000" points="394.4709,-164.5003 384.4708,-168 394.4707,-171.5003 394.4709,-164.5003"/>
</g>
<!-- rome_Data -->
<g id="node13" class="node">
<title>rome_Data</title>
<polygon fill="#d3d3d3" stroke="#000000" points="211.2885,-78 132.9037,-78 132.9037,-42 211.2885,-42 211.2885,-78"/>
<text text-anchor="middle" x="172.0961" y="-55.8" font-family="Times,serif" font-size="14.00" fill="#000000">rome_Data</text>
</g>
<!-- distance_calculation&#45;&gt;rome_Data -->
<g id="edge9" class="edge">
<title>distance_calculation-&gt;rome_Data</title>
<path fill="none" stroke="#000000" d="M294.5325,-149.9232C270.0389,-131.9339 232.2913,-104.2103 205.1855,-84.3024"/>
<polygon fill="#000000" stroke="#000000" points="206.9207,-81.2343 196.7891,-78.1357 202.7771,-86.8762 206.9207,-81.2343"/>
</g>
<!-- clock_divider -->
<g id="node4" class="node">
<title>clock_divider</title>
<polygon fill="#d3d3d3" stroke="#000000" points="107.9643,-146 15.0119,-146 15.0119,-110 107.9643,-110 107.9643,-146"/>
<text text-anchor="middle" x="61.4881" y="-123.8" font-family="Times,serif" font-size="14.00" fill="#000000">clock_divider</text>
</g>
<!-- MUX -->
<g id="node5" class="node">
<title>MUX</title>
<polygon fill="#d3d3d3" stroke="#000000" points="214,-146 160,-146 160,-110 214,-110 214,-146"/>
<text text-anchor="middle" x="187" y="-123.8" font-family="Times,serif" font-size="14.00" fill="#000000">MUX</text>
</g>
<!-- clock_divider&#45;&gt;MUX -->
<g id="edge3" class="edge">
<title>clock_divider-&gt;MUX</title>
<path fill="none" stroke="#000000" d="M108.2241,-128C121.9729,-128 136.8211,-128 149.8807,-128"/>
<polygon fill="#000000" stroke="#000000" points="149.9155,-131.5001 159.9155,-128 149.9155,-124.5001 149.9155,-131.5001"/>
</g>
<!-- Segment_Dekoder -->
<g id="node6" class="node">
<title>Segment_Dekoder</title>
<polygon fill="#d3d3d3" stroke="#000000" points="246.2842,-186 125.9052,-186 125.9052,-150 246.2842,-150 246.2842,-186"/>
<text text-anchor="middle" x="186.0947" y="-163.8" font-family="Times,serif" font-size="14.00" fill="#000000">Segment_Dekoder</text>
</g>
<!-- MUX&#45;&gt;Segment_Dekoder -->
<g id="edge4" class="edge">
<title>MUX-&gt;Segment_Dekoder</title>
<path fill="none" stroke="#000000" d="M186.5897,-146.1274C186.5865,-146.2721 186.5832,-146.417 186.5799,-146.5619"/>
<polygon fill="#000000" stroke="#000000" points="183.2384,-139.533 186.5109,-149.6098 190.2366,-139.6916 183.2384,-139.533"/>
</g>
<!-- seven_seg_display -->
<g id="node7" class="node">
<title>seven_seg_display</title>
<polygon fill="#d3d3d3" stroke="#000000" points="122.9601,-186 2.0133,-186 2.0133,-150 122.9601,-150 122.9601,-186"/>
<text text-anchor="middle" x="62.4867" y="-163.8" font-family="Times,serif" font-size="14.00" fill="#000000">seven_seg_display</text>
</g>
<!-- Segment_Dekoder&#45;&gt;seven_seg_display -->
<g id="edge5" class="edge">
<title>Segment_Dekoder-&gt;seven_seg_display</title>
<path fill="none" stroke="#000000" d="M125.7391,-168C125.6319,-168 125.5246,-168 125.4174,-168"/>
<polygon fill="#000000" stroke="#000000" points="133.1649,-164.5004 123.1647,-168 133.1646,-171.5004 133.1649,-164.5004"/>
</g>
<!-- Licznik -->
<g id="node8" class="node">
<title>Licznik</title>
<polygon fill="#d3d3d3" stroke="#000000" points="345.645,-38 287.118,-38 287.118,-2 345.645,-2 345.645,-38"/>
<text text-anchor="middle" x="316.3815" y="-15.8" font-family="Times,serif" font-size="14.00" fill="#000000">Licznik</text>
</g>
<!-- sine_rom -->
<g id="node9" class="node">
<title>sine_rom</title>
<polygon fill="#d3d3d3" stroke="#000000" points="351.1516,-78 282.9494,-78 282.9494,-42 351.1516,-42 351.1516,-78"/>
<text text-anchor="middle" x="317.0505" y="-55.8" font-family="Times,serif" font-size="14.00" fill="#000000">sine_rom</text>
</g>
<!-- Licznik&#45;&gt;sine_rom -->
<g id="edge6" class="edge">
<title>Licznik-&gt;sine_rom</title>
<path fill="none" stroke="#000000" d="M316.6847,-38.1274C316.6871,-38.2721 316.6895,-38.417 316.6919,-38.5619"/>
<polygon fill="#000000" stroke="#000000" points="313.0759,-31.6698 316.7429,-41.6098 320.0749,-31.5525 313.0759,-31.6698"/>
</g>
<!-- PWM -->
<g id="node10" class="node">
<title>PWM</title>
<polygon fill="#d3d3d3" stroke="#000000" points="413,-38 359,-38 359,-2 413,-2 413,-38"/>
<text text-anchor="middle" x="386" y="-15.8" font-family="Times,serif" font-size="14.00" fill="#000000">PWM</text>
</g>
<!-- sine_rom&#45;&gt;PWM -->
<g id="edge7" class="edge">
<title>sine_rom-&gt;PWM</title>
<path fill="none" stroke="#000000" d="M348.2975,-41.8726C348.9655,-41.485 349.6353,-41.0965 350.3056,-40.7076"/>
<polygon fill="#000000" stroke="#000000" points="352.0785,-43.7255 358.9719,-35.6799 348.5658,-37.6706 352.0785,-43.7255"/>
</g>
<!-- sine_rom&#45;&gt;rome_Data -->
<g id="edge10" class="edge">
<title>sine_rom-&gt;rome_Data</title>
<path fill="none" stroke="#000000" d="M282.6983,-60C264.4472,-60 241.687,-60 221.5663,-60"/>
<polygon fill="#000000" stroke="#000000" points="221.3229,-56.5001 211.3228,-60 221.3228,-63.5001 221.3229,-56.5001"/>
</g>
<!-- SERVO -->
<g id="node11" class="node">
<title>SERVO</title>
<polygon fill="#d3d3d3" stroke="#000000" points="416.8276,-78 355.0574,-78 355.0574,-42 416.8276,-42 416.8276,-78"/>
<text text-anchor="middle" x="385.9425" y="-55.8" font-family="Times,serif" font-size="14.00" fill="#000000">SERVO</text>
</g>
<!-- PWM&#45;&gt;SERVO -->
<g id="edge8" class="edge">
<title>PWM-&gt;SERVO</title>
<path fill="none" stroke="#000000" d="M385.9739,-38.1274C385.9737,-38.2721 385.9735,-38.417 385.9733,-38.5619"/>
<polygon fill="#000000" stroke="#000000" points="382.4836,-31.6046 385.9689,-41.6098 389.4836,-31.6149 382.4836,-31.6046"/>
</g>
<!-- rome_address -->
<g id="node12" class="node">
<title>rome_address</title>
<polygon fill="#d3d3d3" stroke="#000000" points="129.6175,-78 36.1273,-78 36.1273,-42 129.6175,-42 129.6175,-78"/>
<text text-anchor="middle" x="82.8724" y="-55.8" font-family="Times,serif" font-size="14.00" fill="#000000">rome_address</text>
</g>
<!-- read_write -->
<g id="node14" class="node">
<title>read_write</title>
<polygon fill="#d3d3d3" stroke="#000000" points="119.7793,-38 44.0735,-38 44.0735,-2 119.7793,-2 119.7793,-38"/>
<text text-anchor="middle" x="81.9264" y="-15.8" font-family="Times,serif" font-size="14.00" fill="#000000">read_write</text>
</g>
</g>
</svg>